<svg xmlns="http://www.w3.org/2000/svg" width="560" height="202" viewBox="0 0 560 202" role="img" aria-label="Last 7 Days">
  <defs>
    <clipPath id="vibe-tool-recent-bar">
      <rect x="32" y="68" width="496" height="10" rx="8" ry="8" />
    </clipPath>
  </defs>
  <rect x="1" y="1" width="558" height="200" fill="#0d1117" stroke="#24493e" stroke-width="2" rx="8" />
  <text x="32" y="32" fill="#5eead4" font-size="18" font-weight="700" font-family="system-ui, sans-serif">Last 7 Days</text>
  <text x="32" y="50" fill="#8b949e" font-size="11" font-family="system-ui, sans-serif">Daily tool usage</text>
  <text x="528" y="50" fill="#8b949e" font-size="11" font-family="system-ui, sans-serif" text-anchor="end">100%</text>
  <rect x="32" y="68" width="496" height="10" fill="#30363d" rx="8" ry="8" />
  <rect x="32.00" y="68" width="301.37" height="10" fill="#f97316" clip-path="url(#vibe-tool-recent-bar)" /><rect x="333.37" y="68" width="133.28" height="10" fill="#3b82f6" clip-path="url(#vibe-tool-recent-bar)" /><rect x="466.64" y="68" width="59.42" height="10" fill="#d97757" clip-path="url(#vibe-tool-recent-bar)" /><rect x="526.07" y="68" width="1.93" height="10" fill="#5eead4" clip-path="url(#vibe-tool-recent-bar)" />
  <g transform="translate(33.0,101.0) scale(0.8333333333333334)"><path d="M6 .5L7.6 4.1L11.5 4.7L8.7 7.3L9.4 11.2L6 9.4L2.6 11.2L3.3 7.3L.5 4.7L4.4 4.1Z" fill="#f97316"/></g><text x="48" y="110" fill="#c9d1d9" font-size="12" font-weight="600" font-family="system-ui, sans-serif">CodeFuse Claude</text><text x="272" y="110" fill="#8b949e" font-size="11" font-family="system-ui, sans-serif" text-anchor="end">61%  10h 31m</text><polyline points="32.0,138.0 32.0,134.4 71.3,124.2 110.7,120.0 150.0,133.3 189.3,133.3 228.7,132.8 268.0,131.6 268.0,138.0" fill="#f97316" fill-opacity="0.1" stroke="none" /><polyline points="32.0,134.4 71.3,124.2 110.7,120.0 150.0,133.3 189.3,133.3 228.7,132.8 268.0,131.6" fill="none" stroke="#f97316" stroke-width="1.5" stroke-linecap="round" stroke-linejoin="round" /><g transform="translate(33.0,145.0) scale(0.8333333333333334)"><path d="M6 .7L10.6 3.35V8.65L6 11.3L1.4 8.65V3.35Z" fill="#3b82f6"/></g><text x="48" y="154" fill="#c9d1d9" font-size="12" font-weight="600" font-family="system-ui, sans-serif">Codex</text><text x="272" y="154" fill="#8b949e" font-size="11" font-family="system-ui, sans-serif" text-anchor="end">27%  4h 39m</text><polyline points="32.0,182.0 32.0,181.0 71.3,181.0 110.7,170.4 150.0,164.0 189.3,168.2 228.7,168.2 268.0,177.5 268.0,182.0" fill="#3b82f6" fill-opacity="0.1" stroke="none" /><polyline points="32.0,181.0 71.3,181.0 110.7,170.4 150.0,164.0 189.3,168.2 228.7,168.2 268.0,177.5" fill="none" stroke="#3b82f6" stroke-width="1.5" stroke-linecap="round" stroke-linejoin="round" /><g transform="translate(301.0,101.0) scale(0.8333333333333334)"><path d="M6 0C6.5 3.8 8.2 5.5 12 6C8.2 6.5 6.5 8.2 6 12C5.5 8.2 3.8 6.5 0 6C3.8 5.5 5.5 3.8 6 0Z" fill="#d97757"/></g><text x="316" y="110" fill="#c9d1d9" font-size="12" font-weight="600" font-family="system-ui, sans-serif">Claude</text><text x="540" y="110" fill="#8b949e" font-size="11" font-family="system-ui, sans-serif" text-anchor="end">12%  2h 04m</text><polyline points="300.0,138.0 300.0,137.0 339.3,133.9 378.7,120.0 418.0,129.3 457.3,129.3 496.7,123.1 536.0,123.1 536.0,138.0" fill="#d97757" fill-opacity="0.1" stroke="none" /><polyline points="300.0,137.0 339.3,133.9 378.7,120.0 418.0,129.3 457.3,129.3 496.7,123.1 536.0,123.1" fill="none" stroke="#d97757" stroke-width="1.5" stroke-linecap="round" stroke-linejoin="round" /><g transform="translate(301.0,145.0) scale(0.8333333333333334)"><path d="M7.5.5L3 6.5H6L4.5 11.5L9 5.5H6Z" fill="#5eead4"/></g><text x="316" y="154" fill="#c9d1d9" font-size="12" font-weight="600" font-family="system-ui, sans-serif">CodeFuse</text><text x="540" y="154" fill="#8b949e" font-size="11" font-family="system-ui, sans-serif" text-anchor="end">0%  4m</text><polyline points="300.0,182.0 300.0,181.0 339.3,181.0 378.7,164.0 418.0,181.0 457.3,181.0 496.7,181.0 536.0,181.0 536.0,182.0" fill="#5eead4" fill-opacity="0.1" stroke="none" /><polyline points="300.0,181.0 339.3,181.0 378.7,164.0 418.0,181.0 457.3,181.0 496.7,181.0 536.0,181.0" fill="none" stroke="#5eead4" stroke-width="1.5" stroke-linecap="round" stroke-linejoin="round" />
</svg>
