<svg xmlns="http://www.w3.org/2000/svg" width="560" height="300" viewBox="0 0 560 300" role="img" aria-label="Token Economy (2026)">
  <defs>
    <clipPath id="vibe-token-bar">
      <rect x="32" y="58" width="496" height="10" rx="8" ry="8" />
    </clipPath>
  </defs>
  <rect x="1" y="1" width="558" height="298" fill="#0d1117" stroke="#24493e" stroke-width="2" rx="8" />
  <text x="32" y="34" fill="#5eead4" font-size="20" font-weight="700" font-family="system-ui, sans-serif">Token Economy (2026)</text>
  <text x="32" y="50" fill="#8b949e" font-size="10" font-family="system-ui, sans-serif">180.3B tokens consumed across 17 models</text>
  <rect x="32" y="58" width="496" height="10" fill="#30363d" rx="8" ry="8" />
  <rect x="32.00" y="58" width="429.54" height="10" fill="#14b8a6" clip-path="url(#vibe-token-bar)" /><rect x="461.54" y="58" width="38.19" height="10" fill="#14b8a6" clip-path="url(#vibe-token-bar)" /><rect x="499.73" y="58" width="23.81" height="10" fill="#5eead4" clip-path="url(#vibe-token-bar)" /><rect x="523.54" y="58" width="1.98" height="10" fill="#f0b27a" clip-path="url(#vibe-token-bar)" /><rect x="525.52" y="58" width="0.99" height="10" fill="#d97757" clip-path="url(#vibe-token-bar)" /><rect x="526.51" y="58" width="1.49" height="10" fill="#8b949e" clip-path="url(#vibe-token-bar)" />
  <circle cx="42" cy="96" r="5" fill="#14b8a6" /><text x="56" y="100" fill="#9aa7b6" font-size="13" font-family="system-ui, sans-serif">Gpt 5.6 Sol — 5.6B (86.6%)</text><circle cx="42" cy="124" r="5" fill="#14b8a6" /><text x="56" y="128" fill="#9aa7b6" font-size="13" font-family="system-ui, sans-serif">Gpt 5.5 — 498.5M (7.7%)</text><circle cx="42" cy="152" r="5" fill="#5eead4" /><text x="56" y="156" fill="#9aa7b6" font-size="13" font-family="system-ui, sans-serif">Gpt 5.6 Terra — 307.8M (4.8%)</text><circle cx="42" cy="180" r="5" fill="#f0b27a" /><text x="56" y="184" fill="#9aa7b6" font-size="13" font-family="system-ui, sans-serif">Sonnet 4.5 — 27.7M (0.4%)</text><circle cx="42" cy="208" r="5" fill="#d97757" /><text x="56" y="212" fill="#9aa7b6" font-size="13" font-family="system-ui, sans-serif">Opus 4.6 — 14.6M (0.2%)</text><circle cx="42" cy="236" r="5" fill="#8b949e" /><text x="56" y="240" fill="#9aa7b6" font-size="13" font-family="system-ui, sans-serif">Other models — 15.4M (0.1%)</text>
  <text x="32" y="284" fill="#8b949e" font-size="11" font-family="system-ui, sans-serif">Total: 6.4B tokens · Input: 6.1B · Output: 342.4M · Cache hit: 97%</text>
</svg>
