<svg xmlns="http://www.w3.org/2000/svg" width="560" height="300" viewBox="0 0 560 300" role="img" aria-label="Vibe Tool Mix">
  <defs>
    <clipPath id="vibe-tool-mix-bar">
      <rect x="32" y="68" width="496" height="10" rx="8" ry="8" />
    </clipPath>
  </defs>
  <rect x="1" y="1" width="558" height="298" fill="#0d1117" stroke="#24493e" stroke-width="2" rx="8" />
  <text x="32" y="32" fill="#5eead4" font-size="18" font-weight="700" font-family="system-ui, sans-serif">Vibe Tool Mix</text>
  <text x="32" y="50" fill="#8b949e" font-size="11" font-family="system-ui, sans-serif">All-time tool usage</text>
  <text x="528" y="50" fill="#8b949e" font-size="11" font-family="system-ui, sans-serif" text-anchor="end">100%</text>
  <rect x="32" y="68" width="496" height="10" fill="#30363d" rx="8" ry="8" />
  <rect x="32.00" y="68" width="170.57" height="10" fill="#3b82f6" clip-path="url(#vibe-tool-mix-bar)" /><rect x="202.57" y="68" width="140.52" height="10" fill="#f97316" clip-path="url(#vibe-tool-mix-bar)" /><rect x="343.09" y="68" width="132.83" height="10" fill="#2563eb" clip-path="url(#vibe-tool-mix-bar)" /><rect x="475.92" y="68" width="51.78" height="10" fill="#d97757" clip-path="url(#vibe-tool-mix-bar)" /><rect x="527.70" y="68" width="0.30" height="10" fill="#5eead4" clip-path="url(#vibe-tool-mix-bar)" />
  <g transform="translate(33.0,101.0) scale(0.8333333333333334)"><path d="M6 .7L10.6 3.35V8.65L6 11.3L1.4 8.65V3.35Z" fill="#3b82f6"/></g><text x="48" y="110" fill="#c9d1d9" font-size="12" font-weight="600" font-family="system-ui, sans-serif">Codex</text><text x="272" y="110" fill="#8b949e" font-size="11" font-family="system-ui, sans-serif" text-anchor="end">34%  38h 26m</text><polyline points="32.0,138.0 32.0,137.0 36.5,137.0 41.1,137.0 45.6,137.0 50.2,137.0 54.7,137.0 59.2,137.0 63.8,137.0 68.3,137.0 72.8,137.0 77.4,137.0 81.9,134.7 86.5,128.0 91.0,122.6 95.5,120.0 100.1,135.8 104.6,128.5 109.2,137.0 113.7,137.0 118.2,137.0 122.8,137.0 127.3,137.0 131.8,137.0 136.4,137.0 140.9,137.0 145.5,137.0 150.0,137.0 154.5,137.0 159.1,137.0 163.6,137.0 168.2,137.0 172.7,137.0 177.2,137.0 181.8,137.0 186.3,137.0 190.8,137.0 195.4,137.0 199.9,137.0 204.5,137.0 209.0,137.0 213.5,137.0 218.1,137.0 222.6,137.0 227.2,137.0 231.7,137.0 236.2,137.0 240.8,137.0 245.3,137.0 249.8,137.0 254.4,137.0 258.9,137.0 263.5,137.0 268.0,137.0 268.0,138.0" fill="#3b82f6" fill-opacity="0.1" stroke="none" /><polyline points="32.0,137.0 36.5,137.0 41.1,137.0 45.6,137.0 50.2,137.0 54.7,137.0 59.2,137.0 63.8,137.0 68.3,137.0 72.8,137.0 77.4,137.0 81.9,134.7 86.5,128.0 91.0,122.6 95.5,120.0 100.1,135.8 104.6,128.5 109.2,137.0 113.7,137.0 118.2,137.0 122.8,137.0 127.3,137.0 131.8,137.0 136.4,137.0 140.9,137.0 145.5,137.0 150.0,137.0 154.5,137.0 159.1,137.0 163.6,137.0 168.2,137.0 172.7,137.0 177.2,137.0 181.8,137.0 186.3,137.0 190.8,137.0 195.4,137.0 199.9,137.0 204.5,137.0 209.0,137.0 213.5,137.0 218.1,137.0 222.6,137.0 227.2,137.0 231.7,137.0 236.2,137.0 240.8,137.0 245.3,137.0 249.8,137.0 254.4,137.0 258.9,137.0 263.5,137.0 268.0,137.0" fill="none" stroke="#3b82f6" stroke-width="1.5" stroke-linecap="round" stroke-linejoin="round" /><g transform="translate(33.0,145.0) scale(0.8333333333333334)"><path d="M6 .5L7.6 4.1L11.5 4.7L8.7 7.3L9.4 11.2L6 9.4L2.6 11.2L3.3 7.3L.5 4.7L4.4 4.1Z" fill="#f97316"/></g><text x="48" y="154" fill="#c9d1d9" font-size="12" font-weight="600" font-family="system-ui, sans-serif">CodeFuse Claude</text><text x="272" y="154" fill="#8b949e" font-size="11" font-family="system-ui, sans-serif" text-anchor="end">28%  31h 39m</text><polyline points="32.0,182.0 32.0,181.0 36.5,181.0 41.1,181.0 45.6,181.0 50.2,181.0 54.7,179.2 59.2,178.6 63.8,180.8 68.3,178.9 72.8,181.0 77.4,179.2 81.9,178.8 86.5,180.7 91.0,180.8 95.5,164.0 100.1,170.3 104.6,171.9 109.2,181.0 113.7,181.0 118.2,181.0 122.8,181.0 127.3,181.0 131.8,181.0 136.4,181.0 140.9,181.0 145.5,181.0 150.0,181.0 154.5,181.0 159.1,181.0 163.6,181.0 168.2,181.0 172.7,181.0 177.2,181.0 181.8,181.0 186.3,181.0 190.8,181.0 195.4,181.0 199.9,181.0 204.5,181.0 209.0,181.0 213.5,181.0 218.1,181.0 222.6,181.0 227.2,181.0 231.7,181.0 236.2,181.0 240.8,181.0 245.3,181.0 249.8,181.0 254.4,181.0 258.9,181.0 263.5,181.0 268.0,181.0 268.0,182.0" fill="#f97316" fill-opacity="0.1" stroke="none" /><polyline points="32.0,181.0 36.5,181.0 41.1,181.0 45.6,181.0 50.2,181.0 54.7,179.2 59.2,178.6 63.8,180.8 68.3,178.9 72.8,181.0 77.4,179.2 81.9,178.8 86.5,180.7 91.0,180.8 95.5,164.0 100.1,170.3 104.6,171.9 109.2,181.0 113.7,181.0 118.2,181.0 122.8,181.0 127.3,181.0 131.8,181.0 136.4,181.0 140.9,181.0 145.5,181.0 150.0,181.0 154.5,181.0 159.1,181.0 163.6,181.0 168.2,181.0 172.7,181.0 177.2,181.0 181.8,181.0 186.3,181.0 190.8,181.0 195.4,181.0 199.9,181.0 204.5,181.0 209.0,181.0 213.5,181.0 218.1,181.0 222.6,181.0 227.2,181.0 231.7,181.0 236.2,181.0 240.8,181.0 245.3,181.0 249.8,181.0 254.4,181.0 258.9,181.0 263.5,181.0 268.0,181.0" fill="none" stroke="#f97316" stroke-width="1.5" stroke-linecap="round" stroke-linejoin="round" /><g transform="translate(33.0,189.0) scale(0.8333333333333334)"><path d="M6 .5L11 3V9L6 11.5L1 9V3Z" fill="#2563eb"/></g><text x="48" y="198" fill="#c9d1d9" font-size="12" font-weight="600" font-family="system-ui, sans-serif">CodeFuse Codex</text><text x="272" y="198" fill="#8b949e" font-size="11" font-family="system-ui, sans-serif" text-anchor="end">27%  29h 55m</text><polyline points="32.0,226.0 32.0,225.0 36.5,225.0 41.1,225.0 45.6,225.0 50.2,225.0 54.7,225.0 59.2,225.0 63.8,225.0 68.3,225.0 72.8,225.0 77.4,225.0 81.9,222.2 86.5,214.3 91.0,208.0 95.5,208.2 100.1,225.0 104.6,225.0 109.2,225.0 113.7,225.0 118.2,225.0 122.8,225.0 127.3,225.0 131.8,225.0 136.4,225.0 140.9,225.0 145.5,225.0 150.0,225.0 154.5,225.0 159.1,225.0 163.6,225.0 168.2,225.0 172.7,225.0 177.2,225.0 181.8,225.0 186.3,225.0 190.8,225.0 195.4,225.0 199.9,225.0 204.5,225.0 209.0,225.0 213.5,225.0 218.1,225.0 222.6,225.0 227.2,225.0 231.7,225.0 236.2,225.0 240.8,225.0 245.3,225.0 249.8,225.0 254.4,225.0 258.9,225.0 263.5,225.0 268.0,225.0 268.0,226.0" fill="#2563eb" fill-opacity="0.1" stroke="none" /><polyline points="32.0,225.0 36.5,225.0 41.1,225.0 45.6,225.0 50.2,225.0 54.7,225.0 59.2,225.0 63.8,225.0 68.3,225.0 72.8,225.0 77.4,225.0 81.9,222.2 86.5,214.3 91.0,208.0 95.5,208.2 100.1,225.0 104.6,225.0 109.2,225.0 113.7,225.0 118.2,225.0 122.8,225.0 127.3,225.0 131.8,225.0 136.4,225.0 140.9,225.0 145.5,225.0 150.0,225.0 154.5,225.0 159.1,225.0 163.6,225.0 168.2,225.0 172.7,225.0 177.2,225.0 181.8,225.0 186.3,225.0 190.8,225.0 195.4,225.0 199.9,225.0 204.5,225.0 209.0,225.0 213.5,225.0 218.1,225.0 222.6,225.0 227.2,225.0 231.7,225.0 236.2,225.0 240.8,225.0 245.3,225.0 249.8,225.0 254.4,225.0 258.9,225.0 263.5,225.0 268.0,225.0" fill="none" stroke="#2563eb" stroke-width="1.5" stroke-linecap="round" stroke-linejoin="round" /><g transform="translate(301.0,101.0) scale(0.8333333333333334)"><path d="M6 0C6.5 3.8 8.2 5.5 12 6C8.2 6.5 6.5 8.2 6 12C5.5 8.2 3.8 6.5 0 6C3.8 5.5 5.5 3.8 6 0Z" fill="#d97757"/></g><text x="316" y="110" fill="#c9d1d9" font-size="12" font-weight="600" font-family="system-ui, sans-serif">Claude</text><text x="540" y="110" fill="#8b949e" font-size="11" font-family="system-ui, sans-serif" text-anchor="end">10%  11h 40m</text><polyline points="300.0,138.0 300.0,137.0 304.5,137.0 309.1,137.0 313.6,137.0 318.2,137.0 322.7,131.2 327.2,129.3 331.8,136.3 336.3,130.2 340.8,137.0 345.4,131.2 349.9,129.8 354.5,136.1 359.0,136.3 363.5,120.0 368.1,134.0 372.6,127.7 377.2,137.0 381.7,137.0 386.2,137.0 390.8,137.0 395.3,137.0 399.8,137.0 404.4,137.0 408.9,137.0 413.5,137.0 418.0,137.0 422.5,137.0 427.1,137.0 431.6,137.0 436.2,137.0 440.7,137.0 445.2,137.0 449.8,137.0 454.3,137.0 458.8,137.0 463.4,137.0 467.9,137.0 472.5,137.0 477.0,137.0 481.5,137.0 486.1,137.0 490.6,137.0 495.2,137.0 499.7,137.0 504.2,137.0 508.8,137.0 513.3,137.0 517.8,137.0 522.4,137.0 526.9,137.0 531.5,137.0 536.0,137.0 536.0,138.0" fill="#d97757" fill-opacity="0.1" stroke="none" /><polyline points="300.0,137.0 304.5,137.0 309.1,137.0 313.6,137.0 318.2,137.0 322.7,131.2 327.2,129.3 331.8,136.3 336.3,130.2 340.8,137.0 345.4,131.2 349.9,129.8 354.5,136.1 359.0,136.3 363.5,120.0 368.1,134.0 372.6,127.7 377.2,137.0 381.7,137.0 386.2,137.0 390.8,137.0 395.3,137.0 399.8,137.0 404.4,137.0 408.9,137.0 413.5,137.0 418.0,137.0 422.5,137.0 427.1,137.0 431.6,137.0 436.2,137.0 440.7,137.0 445.2,137.0 449.8,137.0 454.3,137.0 458.8,137.0 463.4,137.0 467.9,137.0 472.5,137.0 477.0,137.0 481.5,137.0 486.1,137.0 490.6,137.0 495.2,137.0 499.7,137.0 504.2,137.0 508.8,137.0 513.3,137.0 517.8,137.0 522.4,137.0 526.9,137.0 531.5,137.0 536.0,137.0" fill="none" stroke="#d97757" stroke-width="1.5" stroke-linecap="round" stroke-linejoin="round" /><g transform="translate(301.0,145.0) scale(0.8333333333333334)"><path d="M7.5.5L3 6.5H6L4.5 11.5L9 5.5H6Z" fill="#5eead4"/></g><text x="316" y="154" fill="#c9d1d9" font-size="12" font-weight="600" font-family="system-ui, sans-serif">CodeFuse</text><text x="540" y="154" fill="#8b949e" font-size="11" font-family="system-ui, sans-serif" text-anchor="end">0%  4m</text><polyline points="300.0,182.0 300.0,181.0 304.5,181.0 309.1,181.0 313.6,181.0 318.2,181.0 322.7,181.0 327.2,181.0 331.8,181.0 336.3,181.0 340.8,181.0 345.4,181.0 349.9,181.0 354.5,181.0 359.0,181.0 363.5,181.0 368.1,164.0 372.6,181.0 377.2,181.0 381.7,181.0 386.2,181.0 390.8,181.0 395.3,181.0 399.8,181.0 404.4,181.0 408.9,181.0 413.5,181.0 418.0,181.0 422.5,181.0 427.1,181.0 431.6,181.0 436.2,181.0 440.7,181.0 445.2,181.0 449.8,181.0 454.3,181.0 458.8,181.0 463.4,181.0 467.9,181.0 472.5,181.0 477.0,181.0 481.5,181.0 486.1,181.0 490.6,181.0 495.2,181.0 499.7,181.0 504.2,181.0 508.8,181.0 513.3,181.0 517.8,181.0 522.4,181.0 526.9,181.0 531.5,181.0 536.0,181.0 536.0,182.0" fill="#5eead4" fill-opacity="0.1" stroke="none" /><polyline points="300.0,181.0 304.5,181.0 309.1,181.0 313.6,181.0 318.2,181.0 322.7,181.0 327.2,181.0 331.8,181.0 336.3,181.0 340.8,181.0 345.4,181.0 349.9,181.0 354.5,181.0 359.0,181.0 363.5,181.0 368.1,164.0 372.6,181.0 377.2,181.0 381.7,181.0 386.2,181.0 390.8,181.0 395.3,181.0 399.8,181.0 404.4,181.0 408.9,181.0 413.5,181.0 418.0,181.0 422.5,181.0 427.1,181.0 431.6,181.0 436.2,181.0 440.7,181.0 445.2,181.0 449.8,181.0 454.3,181.0 458.8,181.0 463.4,181.0 467.9,181.0 472.5,181.0 477.0,181.0 481.5,181.0 486.1,181.0 490.6,181.0 495.2,181.0 499.7,181.0 504.2,181.0 508.8,181.0 513.3,181.0 517.8,181.0 522.4,181.0 526.9,181.0 531.5,181.0 536.0,181.0" fill="none" stroke="#5eead4" stroke-width="1.5" stroke-linecap="round" stroke-linejoin="round" />
</svg>
