<svg xmlns="http://www.w3.org/2000/svg" width="883" height="237" viewBox="0 0 883 237" role="img" aria-label="Vibe coding heatmap">
  <rect x="0" y="0" width="883" height="237" fill="#0d1117" rx="10" />
  <text x="16" y="28" fill="#e6edf3" font-size="18" font-family="system-ui, sans-serif">548 sessions, 3877 active minutes, 48 active days in 2026 (combined, sessions)</text>
  <text x="56" y="38" fill="#c9d1d9" font-size="10" font-family="system-ui, sans-serif">Jan</text><text x="131" y="38" fill="#c9d1d9" font-size="10" font-family="system-ui, sans-serif">Feb</text><text x="191" y="38" fill="#c9d1d9" font-size="10" font-family="system-ui, sans-serif">Mar</text><text x="251" y="38" fill="#c9d1d9" font-size="10" font-family="system-ui, sans-serif">Apr</text><text x="311" y="38" fill="#c9d1d9" font-size="10" font-family="system-ui, sans-serif">May</text><text x="386" y="38" fill="#c9d1d9" font-size="10" font-family="system-ui, sans-serif">Jun</text><text x="446" y="38" fill="#c9d1d9" font-size="10" font-family="system-ui, sans-serif">Jul</text><text x="506" y="38" fill="#c9d1d9" font-size="10" font-family="system-ui, sans-serif">Aug</text><text x="581" y="38" fill="#c9d1d9" font-size="10" font-family="system-ui, sans-serif">Sep</text><text x="641" y="38" fill="#c9d1d9" font-size="10" font-family="system-ui, sans-serif">Oct</text><text x="716" y="38" fill="#c9d1d9" font-size="10" font-family="system-ui, sans-serif">Nov</text><text x="776" y="38" fill="#c9d1d9" font-size="10" font-family="system-ui, sans-serif">Dec</text>
  <text x="16" y="76" fill="#8b949e" font-size="10" font-family="system-ui, sans-serif">Mon</text><text x="16" y="106" fill="#8b949e" font-size="10" font-family="system-ui, sans-serif">Wed</text><text x="16" y="136" fill="#8b949e" font-size="10" font-family="system-ui, sans-serif">Fri</text>
  <rect x="56" y="52" width="11" height="11" rx="2" ry="2" fill="#120c08"><title>2025-12-28: out of range</title></rect><rect x="56" y="67" width="11" height="11" rx="2" ry="2" fill="#120c08"><title>2025-12-29: out of range</title></rect><rect x="56" y="82" width="11" height="11" rx="2" ry="2" fill="#120c08"><title>2025-12-30: out of range</title></rect><rect x="56" y="97" width="11" height="11" rx="2" ry="2" fill="#120c08"><title>2025-12-31: out of range</title></rect><rect x="56" y="112" width="11" height="11" rx="2" ry="2" fill="#1d1511"><title>2026-01-01: 0 active minutes, 0 sessions, 0 events</title></rect><rect x="56" y="127" width="11" height="11" rx="2" ry="2" fill="#1d1511"><title>2026-01-02: 0 active minutes, 0 sessions, 0 events</title></rect><rect x="56" y="142" width="11" height="11" rx="2" ry="2" fill="#1d1511"><title>2026-01-03: 0 active minutes, 0 sessions, 0 events</title></rect><rect x="71" y="52" width="11" height="11" rx="2" ry="2" fill="#1d1511"><title>2026-01-04: 0 active minutes, 0 sessions, 0 events</title></rect><rect x="71" y="67" width="11" height="11" rx="2" ry="2" fill="#1d1511"><title>2026-01-05: 0 active minutes, 0 sessions, 0 events</title></rect><rect x="71" y="82" width="11" height="11" rx="2" ry="2" fill="#1d1511"><title>2026-01-06: 0 active minutes, 0 sessions, 0 events</title></rect><rect x="71" y="97" width="11" height="11" rx="2" ry="2" fill="#1d1511"><title>2026-01-07: 0 active minutes, 0 sessions, 0 events</title></rect><rect x="71" y="112" width="11" height="11" rx="2" ry="2" fill="#1d1511"><title>2026-01-08: 0 active minutes, 0 sessions, 0 events</title></rect><rect x="71" y="127" width="11" height="11" rx="2" ry="2" fill="#1d1511"><title>2026-01-09: 0 active minutes, 0 sessions, 0 events</title></rect><rect x="71" y="142" width="11" height="11" rx="2" ry="2" fill="#1d1511"><title>2026-01-10: 0 active minutes, 0 sessions, 0 events</title></rect><rect x="86" y="52" width="11" height="11" rx="2" ry="2" fill="#1d1511"><title>2026-01-11: 0 active minutes, 0 sessions, 0 events</title></rect><rect x="86" y="67" width="11" height="11" rx="2" ry="2" fill="#1d1511"><title>2026-01-12: 0 active minutes, 0 sessions, 0 events</title></rect><rect x="86" y="82" width="11" height="11" rx="2" ry="2" fill="#1d1511"><title>2026-01-13: 0 active minutes, 0 sessions, 0 events</title></rect><rect x="86" y="97" width="11" height="11" rx="2" ry="2" fill="#1d1511"><title>2026-01-14: 0 active minutes, 0 sessions, 0 events</title></rect><rect x="86" y="112" width="11" height="11" rx="2" ry="2" fill="#1d1511"><title>2026-01-15: 0 active minutes, 0 sessions, 0 events</title></rect><rect x="86" y="127" width="11" height="11" rx="2" ry="2" fill="#1d1511"><title>2026-01-16: 0 active minutes, 0 sessions, 0 events</title></rect><rect x="86" y="142" width="11" height="11" rx="2" ry="2" fill="#1d1511"><title>2026-01-17: 0 active minutes, 0 sessions, 0 events</title></rect><rect x="101" y="52" width="11" height="11" rx="2" ry="2" fill="#1d1511"><title>2026-01-18: 0 active minutes, 0 sessions, 0 events</title></rect><rect x="101" y="67" width="11" height="11" rx="2" ry="2" fill="#1d1511"><title>2026-01-19: 0 active minutes, 0 sessions, 0 events</title></rect><rect x="101" y="82" width="11" height="11" rx="2" ry="2" fill="#1d1511"><title>2026-01-20: 0 active minutes, 0 sessions, 0 events</title></rect><rect x="101" y="97" width="11" height="11" rx="2" ry="2" fill="#1d1511"><title>2026-01-21: 0 active minutes, 0 sessions, 0 events</title></rect><rect x="101" y="112" width="11" height="11" rx="2" ry="2" fill="#1d1511"><title>2026-01-22: 0 active minutes, 0 sessions, 0 events</title></rect><rect x="101" y="127" width="11" height="11" rx="2" ry="2" fill="#1d1511"><title>2026-01-23: 0 active minutes, 0 sessions, 0 events</title></rect><rect x="101" y="142" width="11" height="11" rx="2" ry="2" fill="#1d1511"><title>2026-01-24: 0 active minutes, 0 sessions, 0 events</title></rect><rect x="116" y="52" width="11" height="11" rx="2" ry="2" fill="#1d1511"><title>2026-01-25: 0 active minutes, 0 sessions, 0 events</title></rect><rect x="116" y="67" width="11" height="11" rx="2" ry="2" fill="#1d1511"><title>2026-01-26: 0 active minutes, 0 sessions, 0 events</title></rect><rect x="116" y="82" width="11" height="11" rx="2" ry="2" fill="#1d1511"><title>2026-01-27: 0 active minutes, 0 sessions, 0 events</title></rect><rect x="116" y="97" width="11" height="11" rx="2" ry="2" fill="#1d1511"><title>2026-01-28: 0 active minutes, 0 sessions, 0 events</title></rect><rect x="116" y="112" width="11" height="11" rx="2" ry="2" fill="#1d1511"><title>2026-01-29: 0 active minutes, 0 sessions, 0 events</title></rect><rect x="116" y="127" width="11" height="11" rx="2" ry="2" fill="#1d1511"><title>2026-01-30: 0 active minutes, 0 sessions, 0 events</title></rect><rect x="116" y="142" width="11" height="11" rx="2" ry="2" fill="#1d1511"><title>2026-01-31: 0 active minutes, 0 sessions, 0 events</title></rect><rect x="131" y="52" width="11" height="11" rx="2" ry="2" fill="#1d1511"><title>2026-02-01: 0 active minutes, 0 sessions, 0 events</title></rect><rect x="131" y="67" width="11" height="11" rx="2" ry="2" fill="#1d1511"><title>2026-02-02: 0 active minutes, 0 sessions, 0 events</title></rect><rect x="131" y="82" width="11" height="11" rx="2" ry="2" fill="#1d1511"><title>2026-02-03: 0 active minutes, 0 sessions, 0 events</title></rect><rect x="131" y="97" width="11" height="11" rx="2" ry="2" fill="#1d1511"><title>2026-02-04: 0 active minutes, 0 sessions, 0 events</title></rect><rect x="131" y="112" width="11" height="11" rx="2" ry="2" fill="#d97757"><title>2026-02-05: 26 active minutes, 22 sessions, 30 events</title></rect><rect x="131" y="127" width="11" height="11" rx="2" ry="2" fill="#392725"><title>2026-02-06: 23 active minutes, 4 sessions, 14 events</title></rect><rect x="131" y="142" width="11" height="11" rx="2" ry="2" fill="#1d1511"><title>2026-02-07: 0 active minutes, 0 sessions, 0 events</title></rect><rect x="146" y="52" width="11" height="11" rx="2" ry="2" fill="#1d1511"><title>2026-02-08: 0 active minutes, 0 sessions, 0 events</title></rect><rect x="146" y="67" width="11" height="11" rx="2" ry="2" fill="#1d1511"><title>2026-02-09: 0 active minutes, 0 sessions, 0 events</title></rect><rect x="146" y="82" width="11" height="11" rx="2" ry="2" fill="#1d1511"><title>2026-02-10: 0 active minutes, 0 sessions, 0 events</title></rect><rect x="146" y="97" width="11" height="11" rx="2" ry="2" fill="#392725"><title>2026-02-11: 8 active minutes, 2 sessions, 6 events</title></rect><rect x="146" y="112" width="11" height="11" rx="2" ry="2" fill="#1d1511"><title>2026-02-12: 0 active minutes, 0 sessions, 0 events</title></rect><rect x="146" y="127" width="11" height="11" rx="2" ry="2" fill="#1d1511"><title>2026-02-13: 0 active minutes, 0 sessions, 0 events</title></rect><rect x="146" y="142" width="11" height="11" rx="2" ry="2" fill="#392725"><title>2026-02-14: 68 active minutes, 4 sessions, 44 events</title></rect><rect x="161" y="52" width="11" height="11" rx="2" ry="2" fill="#623b31"><title>2026-02-15: 40 active minutes, 10 sessions, 22 events</title></rect><rect x="161" y="67" width="11" height="11" rx="2" ry="2" fill="#1d1511"><title>2026-02-16: 0 active minutes, 0 sessions, 0 events</title></rect><rect x="161" y="82" width="11" height="11" rx="2" ry="2" fill="#1d1511"><title>2026-02-17: 0 active minutes, 0 sessions, 0 events</title></rect><rect x="161" y="97" width="11" height="11" rx="2" ry="2" fill="#1d1511"><title>2026-02-18: 0 active minutes, 0 sessions, 0 events</title></rect><rect x="161" y="112" width="11" height="11" rx="2" ry="2" fill="#1d1511"><title>2026-02-19: 0 active minutes, 0 sessions, 0 events</title></rect><rect x="161" y="127" width="11" height="11" rx="2" ry="2" fill="#1d1511"><title>2026-02-20: 0 active minutes, 0 sessions, 0 events</title></rect><rect x="161" y="142" width="11" height="11" rx="2" ry="2" fill="#1d1511"><title>2026-02-21: 0 active minutes, 0 sessions, 0 events</title></rect><rect x="176" y="52" width="11" height="11" rx="2" ry="2" fill="#1d1511"><title>2026-02-22: 0 active minutes, 0 sessions, 0 events</title></rect><rect x="176" y="67" width="11" height="11" rx="2" ry="2" fill="#1d1511"><title>2026-02-23: 0 active minutes, 0 sessions, 0 events</title></rect><rect x="176" y="82" width="11" height="11" rx="2" ry="2" fill="#392725"><title>2026-02-24: 7 active minutes, 2 sessions, 6 events</title></rect><rect x="176" y="97" width="11" height="11" rx="2" ry="2" fill="#1d1511"><title>2026-02-25: 0 active minutes, 0 sessions, 0 events</title></rect><rect x="176" y="112" width="11" height="11" rx="2" ry="2" fill="#1d1511"><title>2026-02-26: 0 active minutes, 0 sessions, 0 events</title></rect><rect x="176" y="127" width="11" height="11" rx="2" ry="2" fill="#1d1511"><title>2026-02-27: 0 active minutes, 0 sessions, 0 events</title></rect><rect x="176" y="142" width="11" height="11" rx="2" ry="2" fill="#1d1511"><title>2026-02-28: 0 active minutes, 0 sessions, 0 events</title></rect><rect x="191" y="52" width="11" height="11" rx="2" ry="2" fill="#392725"><title>2026-03-01: 25 active minutes, 4 sessions, 18 events</title></rect><rect x="191" y="67" width="11" height="11" rx="2" ry="2" fill="#915340"><title>2026-03-02: 60 active minutes, 14 sessions, 36 events</title></rect><rect x="191" y="82" width="11" height="11" rx="2" ry="2" fill="#392725"><title>2026-03-03: 5 active minutes, 2 sessions, 4 events</title></rect><rect x="191" y="97" width="11" height="11" rx="2" ry="2" fill="#1d1511"><title>2026-03-04: 0 active minutes, 0 sessions, 0 events</title></rect><rect x="191" y="112" width="11" height="11" rx="2" ry="2" fill="#1d1511"><title>2026-03-05: 0 active minutes, 0 sessions, 0 events</title></rect><rect x="191" y="127" width="11" height="11" rx="2" ry="2" fill="#1d1511"><title>2026-03-06: 0 active minutes, 0 sessions, 0 events</title></rect><rect x="191" y="142" width="11" height="11" rx="2" ry="2" fill="#1d1511"><title>2026-03-07: 0 active minutes, 0 sessions, 0 events</title></rect><rect x="206" y="52" width="11" height="11" rx="2" ry="2" fill="#1d1511"><title>2026-03-08: 0 active minutes, 0 sessions, 0 events</title></rect><rect x="206" y="67" width="11" height="11" rx="2" ry="2" fill="#1d1511"><title>2026-03-09: 0 active minutes, 0 sessions, 0 events</title></rect><rect x="206" y="82" width="11" height="11" rx="2" ry="2" fill="#1d1511"><title>2026-03-10: 0 active minutes, 0 sessions, 0 events</title></rect><rect x="206" y="97" width="11" height="11" rx="2" ry="2" fill="#1d1511"><title>2026-03-11: 0 active minutes, 0 sessions, 0 events</title></rect><rect x="206" y="112" width="11" height="11" rx="2" ry="2" fill="#1d1511"><title>2026-03-12: 0 active minutes, 0 sessions, 0 events</title></rect><rect x="206" y="127" width="11" height="11" rx="2" ry="2" fill="#1d1511"><title>2026-03-13: 0 active minutes, 0 sessions, 0 events</title></rect><rect x="206" y="142" width="11" height="11" rx="2" ry="2" fill="#392725"><title>2026-03-14: 21 active minutes, 2 sessions, 12 events</title></rect><rect x="221" y="52" width="11" height="11" rx="2" ry="2" fill="#1d1511"><title>2026-03-15: 0 active minutes, 0 sessions, 0 events</title></rect><rect x="221" y="67" width="11" height="11" rx="2" ry="2" fill="#1d1511"><title>2026-03-16: 0 active minutes, 0 sessions, 0 events</title></rect><rect x="221" y="82" width="11" height="11" rx="2" ry="2" fill="#392725"><title>2026-03-17: 4 active minutes, 2 sessions, 2 events</title></rect><rect x="221" y="97" width="11" height="11" rx="2" ry="2" fill="#623b31"><title>2026-03-18: 37 active minutes, 6 sessions, 36 events</title></rect><rect x="221" y="112" width="11" height="11" rx="2" ry="2" fill="#173370"><title>2026-03-19: 12 active minutes, 6 sessions, 6 events</title></rect><rect x="221" y="127" width="11" height="11" rx="2" ry="2" fill="#173370"><title>2026-03-20: 18 active minutes, 6 sessions, 10 events</title></rect><rect x="221" y="142" width="11" height="11" rx="2" ry="2" fill="#623b31"><title>2026-03-21: 28 active minutes, 10 sessions, 16 events</title></rect><rect x="236" y="52" width="11" height="11" rx="2" ry="2" fill="#1c46a0"><title>2026-03-22: 25 active minutes, 12 sessions, 18 events</title></rect><rect x="236" y="67" width="11" height="11" rx="2" ry="2" fill="#122345"><title>2026-03-23: 4 active minutes, 2 sessions, 2 events</title></rect><rect x="236" y="82" width="11" height="11" rx="2" ry="2" fill="#d97757"><title>2026-03-24: 56 active minutes, 18 sessions, 34 events</title></rect><rect x="236" y="97" width="11" height="11" rx="2" ry="2" fill="#1c46a0"><title>2026-03-25: 61 active minutes, 16 sessions, 36 events</title></rect><rect x="236" y="112" width="11" height="11" rx="2" ry="2" fill="#1c46a0"><title>2026-03-26: 47 active minutes, 14 sessions, 26 events</title></rect><rect x="236" y="127" width="11" height="11" rx="2" ry="2" fill="#392725"><title>2026-03-27: 8 active minutes, 4 sessions, 4 events</title></rect><rect x="236" y="142" width="11" height="11" rx="2" ry="2" fill="#1d1511"><title>2026-03-28: 0 active minutes, 0 sessions, 0 events</title></rect><rect x="251" y="52" width="11" height="11" rx="2" ry="2" fill="#173370"><title>2026-03-29: 66 active minutes, 6 sessions, 38 events</title></rect><rect x="251" y="67" width="11" height="11" rx="2" ry="2" fill="#2563eb"><title>2026-03-30: 179 active minutes, 18 sessions, 96 events</title></rect><rect x="251" y="82" width="11" height="11" rx="2" ry="2" fill="#1c46a0"><title>2026-03-31: 89 active minutes, 12 sessions, 50 events</title></rect><rect x="251" y="97" width="11" height="11" rx="2" ry="2" fill="#122345"><title>2026-04-01: 46 active minutes, 4 sessions, 26 events</title></rect><rect x="251" y="112" width="11" height="11" rx="2" ry="2" fill="#1c46a0"><title>2026-04-02: 149 active minutes, 16 sessions, 82 events</title></rect><rect x="251" y="127" width="11" height="11" rx="2" ry="2" fill="#2563eb"><title>2026-04-03: 128 active minutes, 18 sessions, 80 events</title></rect><rect x="251" y="142" width="11" height="11" rx="2" ry="2" fill="#1c46a0"><title>2026-04-04: 50 active minutes, 14 sessions, 28 events</title></rect><rect x="266" y="52" width="11" height="11" rx="2" ry="2" fill="#173370"><title>2026-04-05: 38 active minutes, 6 sessions, 20 events</title></rect><rect x="266" y="67" width="11" height="11" rx="2" ry="2" fill="#173370"><title>2026-04-06: 33 active minutes, 8 sessions, 22 events</title></rect><rect x="266" y="82" width="11" height="11" rx="2" ry="2" fill="#1c46a0"><title>2026-04-07: 80 active minutes, 16 sessions, 54 events</title></rect><rect x="266" y="97" width="11" height="11" rx="2" ry="2" fill="#1c46a0"><title>2026-04-08: 148 active minutes, 14 sessions, 90 events</title></rect><rect x="266" y="112" width="11" height="11" rx="2" ry="2" fill="#1c46a0"><title>2026-04-09: 147 active minutes, 14 sessions, 92 events</title></rect><rect x="266" y="127" width="11" height="11" rx="2" ry="2" fill="#1c46a0"><title>2026-04-10: 100 active minutes, 14 sessions, 56 events</title></rect><rect x="266" y="142" width="11" height="11" rx="2" ry="2" fill="#1c46a0"><title>2026-04-11: 117 active minutes, 12 sessions, 62 events</title></rect><rect x="281" y="52" width="11" height="11" rx="2" ry="2" fill="#173370"><title>2026-04-12: 127 active minutes, 8 sessions, 72 events</title></rect><rect x="281" y="67" width="11" height="11" rx="2" ry="2" fill="#3b82f6"><title>2026-04-13: 316 active minutes, 24 sessions, 140 events</title></rect><rect x="281" y="82" width="11" height="11" rx="2" ry="2" fill="#f97316"><title>2026-04-14: 207 active minutes, 18 sessions, 92 events</title></rect><rect x="281" y="97" width="11" height="11" rx="2" ry="2" fill="#f97316"><title>2026-04-15: 395 active minutes, 43 sessions, 197 events</title></rect><rect x="281" y="112" width="11" height="11" rx="2" ry="2" fill="#402616"><title>2026-04-16: 15 active minutes, 3 sessions, 4 events</title></rect><rect x="281" y="127" width="11" height="11" rx="2" ry="2" fill="#402616"><title>2026-04-17: 15 active minutes, 4 sessions, 5 events</title></rect><rect x="281" y="142" width="11" height="11" rx="2" ry="2" fill="#1d1511"><title>2026-04-18: 0 active minutes, 0 sessions, 0 events</title></rect><rect x="296" y="52" width="11" height="11" rx="2" ry="2" fill="#1d1511"><title>2026-04-19: 0 active minutes, 0 sessions, 0 events</title></rect><rect x="296" y="67" width="11" height="11" rx="2" ry="2" fill="#402616"><title>2026-04-20: 43 active minutes, 4 sessions, 11 events</title></rect><rect x="296" y="82" width="11" height="11" rx="2" ry="2" fill="#f97316"><title>2026-04-21: 150 active minutes, 22 sessions, 57 events</title></rect><rect x="296" y="97" width="11" height="11" rx="2" ry="2" fill="#f97316"><title>2026-04-22: 250 active minutes, 35 sessions, 101 events</title></rect><rect x="296" y="112" width="11" height="11" rx="2" ry="2" fill="#2a5aa7"><title>2026-04-23: 127 active minutes, 12 sessions, 45 events</title></rect><rect x="296" y="127" width="11" height="11" rx="2" ry="2" fill="#a65016"><title>2026-04-24: 107 active minutes, 15 sessions, 39 events</title></rect><rect x="296" y="142" width="11" height="11" rx="2" ry="2" fill="#3b82f6"><title>2026-04-25: 123 active minutes, 18 sessions, 45 events</title></rect><rect x="311" y="52" width="11" height="11" rx="2" ry="2" fill="#703a16"><title>2026-04-26: 45 active minutes, 8 sessions, 17 events</title></rect><rect x="311" y="67" width="11" height="11" rx="2" ry="2" fill="#1d1511"><title>No vibe record yet</title></rect><rect x="311" y="82" width="11" height="11" rx="2" ry="2" fill="#1d1511"><title>No vibe record yet</title></rect><rect x="311" y="97" width="11" height="11" rx="2" ry="2" fill="#1d1511"><title>No vibe record yet</title></rect><rect x="311" y="112" width="11" height="11" rx="2" ry="2" fill="#1d1511"><title>No vibe record yet</title></rect><rect x="311" y="127" width="11" height="11" rx="2" ry="2" fill="#1d1511"><title>No vibe record yet</title></rect><rect x="311" y="142" width="11" height="11" rx="2" ry="2" fill="#1d1511"><title>No vibe record yet</title></rect><rect x="326" y="52" width="11" height="11" rx="2" ry="2" fill="#1d1511"><title>No vibe record yet</title></rect><rect x="326" y="67" width="11" height="11" rx="2" ry="2" fill="#1d1511"><title>No vibe record yet</title></rect><rect x="326" y="82" width="11" height="11" rx="2" ry="2" fill="#1d1511"><title>No vibe record yet</title></rect><rect x="326" y="97" width="11" height="11" rx="2" ry="2" fill="#1d1511"><title>No vibe record yet</title></rect><rect x="326" y="112" width="11" height="11" rx="2" ry="2" fill="#1d1511"><title>No vibe record yet</title></rect><rect x="326" y="127" width="11" height="11" rx="2" ry="2" fill="#1d1511"><title>No vibe record yet</title></rect><rect x="326" y="142" width="11" height="11" rx="2" ry="2" fill="#1d1511"><title>No vibe record yet</title></rect><rect x="341" y="52" width="11" height="11" rx="2" ry="2" fill="#1d1511"><title>No vibe record yet</title></rect><rect x="341" y="67" width="11" height="11" rx="2" ry="2" fill="#1d1511"><title>No vibe record yet</title></rect><rect x="341" y="82" width="11" height="11" rx="2" ry="2" fill="#1d1511"><title>No vibe record yet</title></rect><rect x="341" y="97" width="11" height="11" rx="2" ry="2" fill="#1d1511"><title>No vibe record yet</title></rect><rect x="341" y="112" width="11" height="11" rx="2" ry="2" fill="#1d1511"><title>No vibe record yet</title></rect><rect x="341" y="127" width="11" height="11" rx="2" ry="2" fill="#1d1511"><title>No vibe record yet</title></rect><rect x="341" y="142" width="11" height="11" rx="2" ry="2" fill="#1d1511"><title>No vibe record yet</title></rect><rect x="356" y="52" width="11" height="11" rx="2" ry="2" fill="#1d1511"><title>No vibe record yet</title></rect><rect x="356" y="67" width="11" height="11" rx="2" ry="2" fill="#1d1511"><title>No vibe record yet</title></rect><rect x="356" y="82" width="11" height="11" rx="2" ry="2" fill="#1d1511"><title>No vibe record yet</title></rect><rect x="356" y="97" width="11" height="11" rx="2" ry="2" fill="#1d1511"><title>No vibe record yet</title></rect><rect x="356" y="112" width="11" height="11" rx="2" ry="2" fill="#1d1511"><title>No vibe record yet</title></rect><rect x="356" y="127" width="11" height="11" rx="2" ry="2" fill="#1d1511"><title>No vibe record yet</title></rect><rect x="356" y="142" width="11" height="11" rx="2" ry="2" fill="#1d1511"><title>No vibe record yet</title></rect><rect x="371" y="52" width="11" height="11" rx="2" ry="2" fill="#1d1511"><title>No vibe record yet</title></rect><rect x="371" y="67" width="11" height="11" rx="2" ry="2" fill="#1d1511"><title>No vibe record yet</title></rect><rect x="371" y="82" width="11" height="11" rx="2" ry="2" fill="#1d1511"><title>No vibe record yet</title></rect><rect x="371" y="97" width="11" height="11" rx="2" ry="2" fill="#1d1511"><title>No vibe record yet</title></rect><rect x="371" y="112" width="11" height="11" rx="2" ry="2" fill="#1d1511"><title>No vibe record yet</title></rect><rect x="371" y="127" width="11" height="11" rx="2" ry="2" fill="#1d1511"><title>No vibe record yet</title></rect><rect x="371" y="142" width="11" height="11" rx="2" ry="2" fill="#1d1511"><title>No vibe record yet</title></rect><rect x="386" y="52" width="11" height="11" rx="2" ry="2" fill="#1d1511"><title>No vibe record yet</title></rect><rect x="386" y="67" width="11" height="11" rx="2" ry="2" fill="#1d1511"><title>No vibe record yet</title></rect><rect x="386" y="82" width="11" height="11" rx="2" ry="2" fill="#1d1511"><title>No vibe record yet</title></rect><rect x="386" y="97" width="11" height="11" rx="2" ry="2" fill="#1d1511"><title>No vibe record yet</title></rect><rect x="386" y="112" width="11" height="11" rx="2" ry="2" fill="#1d1511"><title>No vibe record yet</title></rect><rect x="386" y="127" width="11" height="11" rx="2" ry="2" fill="#1d1511"><title>No vibe record yet</title></rect><rect x="386" y="142" width="11" height="11" rx="2" ry="2" fill="#1d1511"><title>No vibe record yet</title></rect><rect x="401" y="52" width="11" height="11" rx="2" ry="2" fill="#1d1511"><title>No vibe record yet</title></rect><rect x="401" y="67" width="11" height="11" rx="2" ry="2" fill="#1d1511"><title>No vibe record yet</title></rect><rect x="401" y="82" width="11" height="11" rx="2" ry="2" fill="#1d1511"><title>No vibe record yet</title></rect><rect x="401" y="97" width="11" height="11" rx="2" ry="2" fill="#1d1511"><title>No vibe record yet</title></rect><rect x="401" y="112" width="11" height="11" rx="2" ry="2" fill="#1d1511"><title>No vibe record yet</title></rect><rect x="401" y="127" width="11" height="11" rx="2" ry="2" fill="#1d1511"><title>No vibe record yet</title></rect><rect x="401" y="142" width="11" height="11" rx="2" ry="2" fill="#1d1511"><title>No vibe record yet</title></rect><rect x="416" y="52" width="11" height="11" rx="2" ry="2" fill="#1d1511"><title>No vibe record yet</title></rect><rect x="416" y="67" width="11" height="11" rx="2" ry="2" fill="#1d1511"><title>No vibe record yet</title></rect><rect x="416" y="82" width="11" height="11" rx="2" ry="2" fill="#1d1511"><title>No vibe record yet</title></rect><rect x="416" y="97" width="11" height="11" rx="2" ry="2" fill="#1d1511"><title>No vibe record yet</title></rect><rect x="416" y="112" width="11" height="11" rx="2" ry="2" fill="#1d1511"><title>No vibe record yet</title></rect><rect x="416" y="127" width="11" height="11" rx="2" ry="2" fill="#1d1511"><title>No vibe record yet</title></rect><rect x="416" y="142" width="11" height="11" rx="2" ry="2" fill="#1d1511"><title>No vibe record yet</title></rect><rect x="431" y="52" width="11" height="11" rx="2" ry="2" fill="#1d1511"><title>No vibe record yet</title></rect><rect x="431" y="67" width="11" height="11" rx="2" ry="2" fill="#1d1511"><title>No vibe record yet</title></rect><rect x="431" y="82" width="11" height="11" rx="2" ry="2" fill="#1d1511"><title>No vibe record yet</title></rect><rect x="431" y="97" width="11" height="11" rx="2" ry="2" fill="#1d1511"><title>No vibe record yet</title></rect><rect x="431" y="112" width="11" height="11" rx="2" ry="2" fill="#1d1511"><title>No vibe record yet</title></rect><rect x="431" y="127" width="11" height="11" rx="2" ry="2" fill="#1d1511"><title>No vibe record yet</title></rect><rect x="431" y="142" width="11" height="11" rx="2" ry="2" fill="#1d1511"><title>No vibe record yet</title></rect><rect x="446" y="52" width="11" height="11" rx="2" ry="2" fill="#1d1511"><title>No vibe record yet</title></rect><rect x="446" y="67" width="11" height="11" rx="2" ry="2" fill="#1d1511"><title>No vibe record yet</title></rect><rect x="446" y="82" width="11" height="11" rx="2" ry="2" fill="#1d1511"><title>No vibe record yet</title></rect><rect x="446" y="97" width="11" height="11" rx="2" ry="2" fill="#1d1511"><title>No vibe record yet</title></rect><rect x="446" y="112" width="11" height="11" rx="2" ry="2" fill="#1d1511"><title>No vibe record yet</title></rect><rect x="446" y="127" width="11" height="11" rx="2" ry="2" fill="#1d1511"><title>No vibe record yet</title></rect><rect x="446" y="142" width="11" height="11" rx="2" ry="2" fill="#1d1511"><title>No vibe record yet</title></rect><rect x="461" y="52" width="11" height="11" rx="2" ry="2" fill="#1d1511"><title>No vibe record yet</title></rect><rect x="461" y="67" width="11" height="11" rx="2" ry="2" fill="#1d1511"><title>No vibe record yet</title></rect><rect x="461" y="82" width="11" height="11" rx="2" ry="2" fill="#1d1511"><title>No vibe record yet</title></rect><rect x="461" y="97" width="11" height="11" rx="2" ry="2" fill="#1d1511"><title>No vibe record yet</title></rect><rect x="461" y="112" width="11" height="11" rx="2" ry="2" fill="#1d1511"><title>No vibe record yet</title></rect><rect x="461" y="127" width="11" height="11" rx="2" ry="2" fill="#1d1511"><title>No vibe record yet</title></rect><rect x="461" y="142" width="11" height="11" rx="2" ry="2" fill="#1d1511"><title>No vibe record yet</title></rect><rect x="476" y="52" width="11" height="11" rx="2" ry="2" fill="#1d1511"><title>No vibe record yet</title></rect><rect x="476" y="67" width="11" height="11" rx="2" ry="2" fill="#1d1511"><title>No vibe record yet</title></rect><rect x="476" y="82" width="11" height="11" rx="2" ry="2" fill="#1d1511"><title>No vibe record yet</title></rect><rect x="476" y="97" width="11" height="11" rx="2" ry="2" fill="#1d1511"><title>No vibe record yet</title></rect><rect x="476" y="112" width="11" height="11" rx="2" ry="2" fill="#1d1511"><title>No vibe record yet</title></rect><rect x="476" y="127" width="11" height="11" rx="2" ry="2" fill="#1d1511"><title>No vibe record yet</title></rect><rect x="476" y="142" width="11" height="11" rx="2" ry="2" fill="#1d1511"><title>No vibe record yet</title></rect><rect x="491" y="52" width="11" height="11" rx="2" ry="2" fill="#1d1511"><title>No vibe record yet</title></rect><rect x="491" y="67" width="11" height="11" rx="2" ry="2" fill="#1d1511"><title>No vibe record yet</title></rect><rect x="491" y="82" width="11" height="11" rx="2" ry="2" fill="#1d1511"><title>No vibe record yet</title></rect><rect x="491" y="97" width="11" height="11" rx="2" ry="2" fill="#1d1511"><title>No vibe record yet</title></rect><rect x="491" y="112" width="11" height="11" rx="2" ry="2" fill="#1d1511"><title>No vibe record yet</title></rect><rect x="491" y="127" width="11" height="11" rx="2" ry="2" fill="#1d1511"><title>No vibe record yet</title></rect><rect x="491" y="142" width="11" height="11" rx="2" ry="2" fill="#1d1511"><title>No vibe record yet</title></rect><rect x="506" y="52" width="11" height="11" rx="2" ry="2" fill="#1d1511"><title>No vibe record yet</title></rect><rect x="506" y="67" width="11" height="11" rx="2" ry="2" fill="#1d1511"><title>No vibe record yet</title></rect><rect x="506" y="82" width="11" height="11" rx="2" ry="2" fill="#1d1511"><title>No vibe record yet</title></rect><rect x="506" y="97" width="11" height="11" rx="2" ry="2" fill="#1d1511"><title>No vibe record yet</title></rect><rect x="506" y="112" width="11" height="11" rx="2" ry="2" fill="#1d1511"><title>No vibe record yet</title></rect><rect x="506" y="127" width="11" height="11" rx="2" ry="2" fill="#1d1511"><title>No vibe record yet</title></rect><rect x="506" y="142" width="11" height="11" rx="2" ry="2" fill="#1d1511"><title>No vibe record yet</title></rect><rect x="521" y="52" width="11" height="11" rx="2" ry="2" fill="#1d1511"><title>No vibe record yet</title></rect><rect x="521" y="67" width="11" height="11" rx="2" ry="2" fill="#1d1511"><title>No vibe record yet</title></rect><rect x="521" y="82" width="11" height="11" rx="2" ry="2" fill="#1d1511"><title>No vibe record yet</title></rect><rect x="521" y="97" width="11" height="11" rx="2" ry="2" fill="#1d1511"><title>No vibe record yet</title></rect><rect x="521" y="112" width="11" height="11" rx="2" ry="2" fill="#1d1511"><title>No vibe record yet</title></rect><rect x="521" y="127" width="11" height="11" rx="2" ry="2" fill="#1d1511"><title>No vibe record yet</title></rect><rect x="521" y="142" width="11" height="11" rx="2" ry="2" fill="#1d1511"><title>No vibe record yet</title></rect><rect x="536" y="52" width="11" height="11" rx="2" ry="2" fill="#1d1511"><title>No vibe record yet</title></rect><rect x="536" y="67" width="11" height="11" rx="2" ry="2" fill="#1d1511"><title>No vibe record yet</title></rect><rect x="536" y="82" width="11" height="11" rx="2" ry="2" fill="#1d1511"><title>No vibe record yet</title></rect><rect x="536" y="97" width="11" height="11" rx="2" ry="2" fill="#1d1511"><title>No vibe record yet</title></rect><rect x="536" y="112" width="11" height="11" rx="2" ry="2" fill="#1d1511"><title>No vibe record yet</title></rect><rect x="536" y="127" width="11" height="11" rx="2" ry="2" fill="#1d1511"><title>No vibe record yet</title></rect><rect x="536" y="142" width="11" height="11" rx="2" ry="2" fill="#1d1511"><title>No vibe record yet</title></rect><rect x="551" y="52" width="11" height="11" rx="2" ry="2" fill="#1d1511"><title>No vibe record yet</title></rect><rect x="551" y="67" width="11" height="11" rx="2" ry="2" fill="#1d1511"><title>No vibe record yet</title></rect><rect x="551" y="82" width="11" height="11" rx="2" ry="2" fill="#1d1511"><title>No vibe record yet</title></rect><rect x="551" y="97" width="11" height="11" rx="2" ry="2" fill="#1d1511"><title>No vibe record yet</title></rect><rect x="551" y="112" width="11" height="11" rx="2" ry="2" fill="#1d1511"><title>No vibe record yet</title></rect><rect x="551" y="127" width="11" height="11" rx="2" ry="2" fill="#1d1511"><title>No vibe record yet</title></rect><rect x="551" y="142" width="11" height="11" rx="2" ry="2" fill="#1d1511"><title>No vibe record yet</title></rect><rect x="566" y="52" width="11" height="11" rx="2" ry="2" fill="#1d1511"><title>No vibe record yet</title></rect><rect x="566" y="67" width="11" height="11" rx="2" ry="2" fill="#1d1511"><title>No vibe record yet</title></rect><rect x="566" y="82" width="11" height="11" rx="2" ry="2" fill="#1d1511"><title>No vibe record yet</title></rect><rect x="566" y="97" width="11" height="11" rx="2" ry="2" fill="#1d1511"><title>No vibe record yet</title></rect><rect x="566" y="112" width="11" height="11" rx="2" ry="2" fill="#1d1511"><title>No vibe record yet</title></rect><rect x="566" y="127" width="11" height="11" rx="2" ry="2" fill="#1d1511"><title>No vibe record yet</title></rect><rect x="566" y="142" width="11" height="11" rx="2" ry="2" fill="#1d1511"><title>No vibe record yet</title></rect><rect x="581" y="52" width="11" height="11" rx="2" ry="2" fill="#1d1511"><title>No vibe record yet</title></rect><rect x="581" y="67" width="11" height="11" rx="2" ry="2" fill="#1d1511"><title>No vibe record yet</title></rect><rect x="581" y="82" width="11" height="11" rx="2" ry="2" fill="#1d1511"><title>No vibe record yet</title></rect><rect x="581" y="97" width="11" height="11" rx="2" ry="2" fill="#1d1511"><title>No vibe record yet</title></rect><rect x="581" y="112" width="11" height="11" rx="2" ry="2" fill="#1d1511"><title>No vibe record yet</title></rect><rect x="581" y="127" width="11" height="11" rx="2" ry="2" fill="#1d1511"><title>No vibe record yet</title></rect><rect x="581" y="142" width="11" height="11" rx="2" ry="2" fill="#1d1511"><title>No vibe record yet</title></rect><rect x="596" y="52" width="11" height="11" rx="2" ry="2" fill="#1d1511"><title>No vibe record yet</title></rect><rect x="596" y="67" width="11" height="11" rx="2" ry="2" fill="#1d1511"><title>No vibe record yet</title></rect><rect x="596" y="82" width="11" height="11" rx="2" ry="2" fill="#1d1511"><title>No vibe record yet</title></rect><rect x="596" y="97" width="11" height="11" rx="2" ry="2" fill="#1d1511"><title>No vibe record yet</title></rect><rect x="596" y="112" width="11" height="11" rx="2" ry="2" fill="#1d1511"><title>No vibe record yet</title></rect><rect x="596" y="127" width="11" height="11" rx="2" ry="2" fill="#1d1511"><title>No vibe record yet</title></rect><rect x="596" y="142" width="11" height="11" rx="2" ry="2" fill="#1d1511"><title>No vibe record yet</title></rect><rect x="611" y="52" width="11" height="11" rx="2" ry="2" fill="#1d1511"><title>No vibe record yet</title></rect><rect x="611" y="67" width="11" height="11" rx="2" ry="2" fill="#1d1511"><title>No vibe record yet</title></rect><rect x="611" y="82" width="11" height="11" rx="2" ry="2" fill="#1d1511"><title>No vibe record yet</title></rect><rect x="611" y="97" width="11" height="11" rx="2" ry="2" fill="#1d1511"><title>No vibe record yet</title></rect><rect x="611" y="112" width="11" height="11" rx="2" ry="2" fill="#1d1511"><title>No vibe record yet</title></rect><rect x="611" y="127" width="11" height="11" rx="2" ry="2" fill="#1d1511"><title>No vibe record yet</title></rect><rect x="611" y="142" width="11" height="11" rx="2" ry="2" fill="#1d1511"><title>No vibe record yet</title></rect><rect x="626" y="52" width="11" height="11" rx="2" ry="2" fill="#1d1511"><title>No vibe record yet</title></rect><rect x="626" y="67" width="11" height="11" rx="2" ry="2" fill="#1d1511"><title>No vibe record yet</title></rect><rect x="626" y="82" width="11" height="11" rx="2" ry="2" fill="#1d1511"><title>No vibe record yet</title></rect><rect x="626" y="97" width="11" height="11" rx="2" ry="2" fill="#1d1511"><title>No vibe record yet</title></rect><rect x="626" y="112" width="11" height="11" rx="2" ry="2" fill="#1d1511"><title>No vibe record yet</title></rect><rect x="626" y="127" width="11" height="11" rx="2" ry="2" fill="#1d1511"><title>No vibe record yet</title></rect><rect x="626" y="142" width="11" height="11" rx="2" ry="2" fill="#1d1511"><title>No vibe record yet</title></rect><rect x="641" y="52" width="11" height="11" rx="2" ry="2" fill="#1d1511"><title>No vibe record yet</title></rect><rect x="641" y="67" width="11" height="11" rx="2" ry="2" fill="#1d1511"><title>No vibe record yet</title></rect><rect x="641" y="82" width="11" height="11" rx="2" ry="2" fill="#1d1511"><title>No vibe record yet</title></rect><rect x="641" y="97" width="11" height="11" rx="2" ry="2" fill="#1d1511"><title>No vibe record yet</title></rect><rect x="641" y="112" width="11" height="11" rx="2" ry="2" fill="#1d1511"><title>No vibe record yet</title></rect><rect x="641" y="127" width="11" height="11" rx="2" ry="2" fill="#1d1511"><title>No vibe record yet</title></rect><rect x="641" y="142" width="11" height="11" rx="2" ry="2" fill="#1d1511"><title>No vibe record yet</title></rect><rect x="656" y="52" width="11" height="11" rx="2" ry="2" fill="#1d1511"><title>No vibe record yet</title></rect><rect x="656" y="67" width="11" height="11" rx="2" ry="2" fill="#1d1511"><title>No vibe record yet</title></rect><rect x="656" y="82" width="11" height="11" rx="2" ry="2" fill="#1d1511"><title>No vibe record yet</title></rect><rect x="656" y="97" width="11" height="11" rx="2" ry="2" fill="#1d1511"><title>No vibe record yet</title></rect><rect x="656" y="112" width="11" height="11" rx="2" ry="2" fill="#1d1511"><title>No vibe record yet</title></rect><rect x="656" y="127" width="11" height="11" rx="2" ry="2" fill="#1d1511"><title>No vibe record yet</title></rect><rect x="656" y="142" width="11" height="11" rx="2" ry="2" fill="#1d1511"><title>No vibe record yet</title></rect><rect x="671" y="52" width="11" height="11" rx="2" ry="2" fill="#1d1511"><title>No vibe record yet</title></rect><rect x="671" y="67" width="11" height="11" rx="2" ry="2" fill="#1d1511"><title>No vibe record yet</title></rect><rect x="671" y="82" width="11" height="11" rx="2" ry="2" fill="#1d1511"><title>No vibe record yet</title></rect><rect x="671" y="97" width="11" height="11" rx="2" ry="2" fill="#1d1511"><title>No vibe record yet</title></rect><rect x="671" y="112" width="11" height="11" rx="2" ry="2" fill="#1d1511"><title>No vibe record yet</title></rect><rect x="671" y="127" width="11" height="11" rx="2" ry="2" fill="#1d1511"><title>No vibe record yet</title></rect><rect x="671" y="142" width="11" height="11" rx="2" ry="2" fill="#1d1511"><title>No vibe record yet</title></rect><rect x="686" y="52" width="11" height="11" rx="2" ry="2" fill="#1d1511"><title>No vibe record yet</title></rect><rect x="686" y="67" width="11" height="11" rx="2" ry="2" fill="#1d1511"><title>No vibe record yet</title></rect><rect x="686" y="82" width="11" height="11" rx="2" ry="2" fill="#1d1511"><title>No vibe record yet</title></rect><rect x="686" y="97" width="11" height="11" rx="2" ry="2" fill="#1d1511"><title>No vibe record yet</title></rect><rect x="686" y="112" width="11" height="11" rx="2" ry="2" fill="#1d1511"><title>No vibe record yet</title></rect><rect x="686" y="127" width="11" height="11" rx="2" ry="2" fill="#1d1511"><title>No vibe record yet</title></rect><rect x="686" y="142" width="11" height="11" rx="2" ry="2" fill="#1d1511"><title>No vibe record yet</title></rect><rect x="701" y="52" width="11" height="11" rx="2" ry="2" fill="#1d1511"><title>No vibe record yet</title></rect><rect x="701" y="67" width="11" height="11" rx="2" ry="2" fill="#1d1511"><title>No vibe record yet</title></rect><rect x="701" y="82" width="11" height="11" rx="2" ry="2" fill="#1d1511"><title>No vibe record yet</title></rect><rect x="701" y="97" width="11" height="11" rx="2" ry="2" fill="#1d1511"><title>No vibe record yet</title></rect><rect x="701" y="112" width="11" height="11" rx="2" ry="2" fill="#1d1511"><title>No vibe record yet</title></rect><rect x="701" y="127" width="11" height="11" rx="2" ry="2" fill="#1d1511"><title>No vibe record yet</title></rect><rect x="701" y="142" width="11" height="11" rx="2" ry="2" fill="#1d1511"><title>No vibe record yet</title></rect><rect x="716" y="52" width="11" height="11" rx="2" ry="2" fill="#1d1511"><title>No vibe record yet</title></rect><rect x="716" y="67" width="11" height="11" rx="2" ry="2" fill="#1d1511"><title>No vibe record yet</title></rect><rect x="716" y="82" width="11" height="11" rx="2" ry="2" fill="#1d1511"><title>No vibe record yet</title></rect><rect x="716" y="97" width="11" height="11" rx="2" ry="2" fill="#1d1511"><title>No vibe record yet</title></rect><rect x="716" y="112" width="11" height="11" rx="2" ry="2" fill="#1d1511"><title>No vibe record yet</title></rect><rect x="716" y="127" width="11" height="11" rx="2" ry="2" fill="#1d1511"><title>No vibe record yet</title></rect><rect x="716" y="142" width="11" height="11" rx="2" ry="2" fill="#1d1511"><title>No vibe record yet</title></rect><rect x="731" y="52" width="11" height="11" rx="2" ry="2" fill="#1d1511"><title>No vibe record yet</title></rect><rect x="731" y="67" width="11" height="11" rx="2" ry="2" fill="#1d1511"><title>No vibe record yet</title></rect><rect x="731" y="82" width="11" height="11" rx="2" ry="2" fill="#1d1511"><title>No vibe record yet</title></rect><rect x="731" y="97" width="11" height="11" rx="2" ry="2" fill="#1d1511"><title>No vibe record yet</title></rect><rect x="731" y="112" width="11" height="11" rx="2" ry="2" fill="#1d1511"><title>No vibe record yet</title></rect><rect x="731" y="127" width="11" height="11" rx="2" ry="2" fill="#1d1511"><title>No vibe record yet</title></rect><rect x="731" y="142" width="11" height="11" rx="2" ry="2" fill="#1d1511"><title>No vibe record yet</title></rect><rect x="746" y="52" width="11" height="11" rx="2" ry="2" fill="#1d1511"><title>No vibe record yet</title></rect><rect x="746" y="67" width="11" height="11" rx="2" ry="2" fill="#1d1511"><title>No vibe record yet</title></rect><rect x="746" y="82" width="11" height="11" rx="2" ry="2" fill="#1d1511"><title>No vibe record yet</title></rect><rect x="746" y="97" width="11" height="11" rx="2" ry="2" fill="#1d1511"><title>No vibe record yet</title></rect><rect x="746" y="112" width="11" height="11" rx="2" ry="2" fill="#1d1511"><title>No vibe record yet</title></rect><rect x="746" y="127" width="11" height="11" rx="2" ry="2" fill="#1d1511"><title>No vibe record yet</title></rect><rect x="746" y="142" width="11" height="11" rx="2" ry="2" fill="#1d1511"><title>No vibe record yet</title></rect><rect x="761" y="52" width="11" height="11" rx="2" ry="2" fill="#1d1511"><title>No vibe record yet</title></rect><rect x="761" y="67" width="11" height="11" rx="2" ry="2" fill="#1d1511"><title>No vibe record yet</title></rect><rect x="761" y="82" width="11" height="11" rx="2" ry="2" fill="#1d1511"><title>No vibe record yet</title></rect><rect x="761" y="97" width="11" height="11" rx="2" ry="2" fill="#1d1511"><title>No vibe record yet</title></rect><rect x="761" y="112" width="11" height="11" rx="2" ry="2" fill="#1d1511"><title>No vibe record yet</title></rect><rect x="761" y="127" width="11" height="11" rx="2" ry="2" fill="#1d1511"><title>No vibe record yet</title></rect><rect x="761" y="142" width="11" height="11" rx="2" ry="2" fill="#1d1511"><title>No vibe record yet</title></rect><rect x="776" y="52" width="11" height="11" rx="2" ry="2" fill="#1d1511"><title>No vibe record yet</title></rect><rect x="776" y="67" width="11" height="11" rx="2" ry="2" fill="#1d1511"><title>No vibe record yet</title></rect><rect x="776" y="82" width="11" height="11" rx="2" ry="2" fill="#1d1511"><title>No vibe record yet</title></rect><rect x="776" y="97" width="11" height="11" rx="2" ry="2" fill="#1d1511"><title>No vibe record yet</title></rect><rect x="776" y="112" width="11" height="11" rx="2" ry="2" fill="#1d1511"><title>No vibe record yet</title></rect><rect x="776" y="127" width="11" height="11" rx="2" ry="2" fill="#1d1511"><title>No vibe record yet</title></rect><rect x="776" y="142" width="11" height="11" rx="2" ry="2" fill="#1d1511"><title>No vibe record yet</title></rect><rect x="791" y="52" width="11" height="11" rx="2" ry="2" fill="#1d1511"><title>No vibe record yet</title></rect><rect x="791" y="67" width="11" height="11" rx="2" ry="2" fill="#1d1511"><title>No vibe record yet</title></rect><rect x="791" y="82" width="11" height="11" rx="2" ry="2" fill="#1d1511"><title>No vibe record yet</title></rect><rect x="791" y="97" width="11" height="11" rx="2" ry="2" fill="#1d1511"><title>No vibe record yet</title></rect><rect x="791" y="112" width="11" height="11" rx="2" ry="2" fill="#1d1511"><title>No vibe record yet</title></rect><rect x="791" y="127" width="11" height="11" rx="2" ry="2" fill="#1d1511"><title>No vibe record yet</title></rect><rect x="791" y="142" width="11" height="11" rx="2" ry="2" fill="#1d1511"><title>No vibe record yet</title></rect><rect x="806" y="52" width="11" height="11" rx="2" ry="2" fill="#1d1511"><title>No vibe record yet</title></rect><rect x="806" y="67" width="11" height="11" rx="2" ry="2" fill="#1d1511"><title>No vibe record yet</title></rect><rect x="806" y="82" width="11" height="11" rx="2" ry="2" fill="#1d1511"><title>No vibe record yet</title></rect><rect x="806" y="97" width="11" height="11" rx="2" ry="2" fill="#1d1511"><title>No vibe record yet</title></rect><rect x="806" y="112" width="11" height="11" rx="2" ry="2" fill="#1d1511"><title>No vibe record yet</title></rect><rect x="806" y="127" width="11" height="11" rx="2" ry="2" fill="#1d1511"><title>No vibe record yet</title></rect><rect x="806" y="142" width="11" height="11" rx="2" ry="2" fill="#1d1511"><title>No vibe record yet</title></rect><rect x="821" y="52" width="11" height="11" rx="2" ry="2" fill="#1d1511"><title>No vibe record yet</title></rect><rect x="821" y="67" width="11" height="11" rx="2" ry="2" fill="#1d1511"><title>No vibe record yet</title></rect><rect x="821" y="82" width="11" height="11" rx="2" ry="2" fill="#1d1511"><title>No vibe record yet</title></rect><rect x="821" y="97" width="11" height="11" rx="2" ry="2" fill="#1d1511"><title>No vibe record yet</title></rect><rect x="821" y="112" width="11" height="11" rx="2" ry="2" fill="#1d1511"><title>No vibe record yet</title></rect><rect x="821" y="127" width="11" height="11" rx="2" ry="2" fill="#1d1511"><title>No vibe record yet</title></rect><rect x="821" y="142" width="11" height="11" rx="2" ry="2" fill="#1d1511"><title>No vibe record yet</title></rect><rect x="836" y="52" width="11" height="11" rx="2" ry="2" fill="#1d1511"><title>No vibe record yet</title></rect><rect x="836" y="67" width="11" height="11" rx="2" ry="2" fill="#1d1511"><title>No vibe record yet</title></rect><rect x="836" y="82" width="11" height="11" rx="2" ry="2" fill="#1d1511"><title>No vibe record yet</title></rect><rect x="836" y="97" width="11" height="11" rx="2" ry="2" fill="#1d1511"><title>No vibe record yet</title></rect><rect x="836" y="112" width="11" height="11" rx="2" ry="2" fill="#1d1511"><title>No vibe record yet</title></rect><rect x="836" y="127" width="11" height="11" rx="2" ry="2" fill="#120c08"><title>2027-01-01: out of range</title></rect><rect x="836" y="142" width="11" height="11" rx="2" ry="2" fill="#120c08"><title>2027-01-02: out of range</title></rect>
  <g transform="translate(16.0,205.0) scale(0.8333333333333334)"><path d="M6 0C6.5 3.8 8.2 5.5 12 6C8.2 6.5 6.5 8.2 6 12C5.5 8.2 3.8 6.5 0 6C3.8 5.5 5.5 3.8 6 0Z" fill="#d97757"/></g><text x="30.0" y="213" fill="#8b949e" font-size="10" font-family="system-ui, sans-serif">Claude</text><g transform="translate(76.0,205.0) scale(0.8333333333333334)"><path d="M6 .5L7.6 4.1L11.5 4.7L8.7 7.3L9.4 11.2L6 9.4L2.6 11.2L3.3 7.3L.5 4.7L4.4 4.1Z" fill="#f97316"/></g><text x="90.0" y="213" fill="#8b949e" font-size="10" font-family="system-ui, sans-serif">CodeFuse Claude</text><g transform="translate(190.0,205.0) scale(0.8333333333333334)"><path d="M6 .5L11 3V9L6 11.5L1 9V3Z" fill="#2563eb"/></g><text x="204.0" y="213" fill="#8b949e" font-size="10" font-family="system-ui, sans-serif">CodeFuse Codex</text><g transform="translate(298.0,205.0) scale(0.8333333333333334)"><path d="M6 .7L10.6 3.35V8.65L6 11.3L1.4 8.65V3.35Z" fill="#3b82f6"/></g><text x="312.0" y="213" fill="#8b949e" font-size="10" font-family="system-ui, sans-serif">Codex</text>
</svg>
