<svg xmlns="http://www.w3.org/2000/svg" width="560" height="228" viewBox="0 0 560 228" role="img" aria-label="Vibe Tools (last 7 days)">
  <defs>
    <clipPath id="vibe-tool-recent-bar">
      <rect x="32" y="58" width="496" height="10" rx="8" ry="8" />
    </clipPath>
  </defs>
  <rect x="1" y="1" width="558" height="226" fill="#0d1117" stroke="#24493e" stroke-width="2" rx="8" />
  <text x="32" y="34" fill="#5eead4" font-size="20" font-weight="700" font-family="system-ui, sans-serif">Vibe Tools (last 7 days)</text>
  <text x="32" y="50" fill="#8b949e" font-size="10" font-family="system-ui, sans-serif">2026-04-20 to 2026-04-26</text>
  <rect x="32" y="58" width="496" height="10" fill="#30363d" rx="8" ry="8" />
  <rect x="32.00" y="58" width="300.53" height="10" fill="#f97316" clip-path="url(#vibe-tool-recent-bar)" /><rect x="332.53" y="58" width="135.16" height="10" fill="#3b82f6" clip-path="url(#vibe-tool-recent-bar)" /><rect x="467.69" y="58" width="58.28" height="10" fill="#d97757" clip-path="url(#vibe-tool-recent-bar)" /><rect x="525.97" y="58" width="2.03" height="10" fill="#5eead4" clip-path="url(#vibe-tool-recent-bar)" />
  <g transform="translate(35.5,89.5) scale(1.0833333333333333)"><path d="M6 .5L7.6 4.1L11.5 4.7L8.7 7.3L9.4 11.2L6 9.4L2.6 11.2L3.3 7.3L.5 4.7L4.4 4.1Z" fill="#f97316"/></g><text x="58" y="101" fill="#9aa7b6" font-size="13" font-family="system-ui, sans-serif">CodeFuse Claude - 9 hrs 54 mins (60.6%)</text><g transform="translate(35.5,117.5) scale(1.0833333333333333)"><path d="M6 .7L10.6 3.35V8.65L6 11.3L1.4 8.65V3.35Z" fill="#3b82f6"/></g><text x="58" y="129" fill="#9aa7b6" font-size="13" font-family="system-ui, sans-serif">Codex - 4 hrs 27 mins (27.2%)</text><g transform="translate(35.5,145.5) scale(1.0833333333333333)"><path d="M6 0C6.5 3.8 8.2 5.5 12 6C8.2 6.5 6.5 8.2 6 12C5.5 8.2 3.8 6.5 0 6C3.8 5.5 5.5 3.8 6 0Z" fill="#d97757"/></g><text x="58" y="157" fill="#9aa7b6" font-size="13" font-family="system-ui, sans-serif">Claude - 1 hr 55 mins (11.8%)</text><g transform="translate(35.5,173.5) scale(1.0833333333333333)"><path d="M7.5.5L3 6.5H6L4.5 11.5L9 5.5H6Z" fill="#5eead4"/></g><text x="58" y="185" fill="#9aa7b6" font-size="13" font-family="system-ui, sans-serif">CodeFuse - 4 mins (0.4%)</text>
</svg>
